<svg xmlns="http://www.w3.org/2000/svg" width="1024" height="1024" viewBox="0 0 1024 1024">
	<title>TargetSelector</title>
	<!--
	[Color Info]
		"background"	nord0 (#2e3440)
		"at"			nord4 (#d8dee9)
	-->
	<circle id="background" fill="#2e3440" cx="512" cy="512" r="512"/>
	<g id="simbol" xmlns:xlink="http://www.w3.org/1999/xlink">
		<defs>
			<g id="at">
				<path d="M512 864a352.4 352.4 0 0 1-352-352c0-194.1 157.9-352 352-352s352 157.9 352 352c0 72.3-21.8 141.9-63 201a32 32 0 0 1-40.8 10.2c-5.3-2.7-129.5-68-129.5-209.9V372.7a32 32 0 0 1 64 0v140.6c0 69.4 42.2 114.3 70.3 136.5A288.3 288.3 0 0 0 512 224a288.3 288.3 0 0 0-288 288 288.3 288.3 0 0 0 419.8 256.1 32 32 0 1 1 29.4 57A353 353 0 0 1 512 864"/>
				<path d="M512 329.9a182.1 182.1 0 1 0 0 364.2 182.1 182.1 0 0 0 0-364.2zm0 64c65.1 0 118.1 53 118.1 118.1s-53 118.1-118.1 118.1-118.1-53-118.1-118.1 53-118.1 118.1-118.1z"/>
			</g>
		</defs>
		<use xlink:href="#at" opacity="0.2" y="32"/>
		<use xlink:href="#at" fill="#d8dee9"/>
	</g>
</svg>