<?xml version="1.0" encoding="UTF-8"?><svg xmlns="http://www.w3.org/2000/svg" xmlns:xlink="http://www.w3.org/1999/xlink" width="64px" height="64px" viewBox="0 0 64 64" version="1.1"><title>email</title><defs><path id="path-1" d="M.06 64V.04H64V64z"/></defs><g id="Page-1" stroke="none" stroke-width="1" fill="none" fill-rule="evenodd"><g id="email"><g id="Group-3"><mask id="mask-2" fill="#fff"><use xlink:href="#path-1"/></mask><path d="M64 32c0 17.673-14.327 32-32 32C14.327 64 0 49.673 0 32 0 14.327 14.327 0 32 0c17.673 0 32 14.327 32 32" id="Fill-1" fill="#76ABC4" mask="url(#mask-2)"/></g><path d="M32 56c-12.131 0-22-9.869-22-22s9.869-22 22-22 22 9.869 22 22c0 4.521-1.362 8.865-3.938 12.563a1.998 1.998 0 0 1-2.552.637c-.231-.118-4.092-2.156-6.396-6.401-2.076 2.777-5.38 4.584-9.114 4.584-6.287 0-11.383-5.096-11.383-11.383 0-6.287 5.096-11.383 11.383-11.383 2.836 0 5.424 1.044 7.417 2.759v-.083a2 2 0 0 1 4 0v8.79c0 4.334 2.641 7.142 4.394 8.529A17.897 17.897 0 0 0 50 34c0-9.925-8.075-18-18-18s-18 8.075-18 18 8.075 18 18 18c2.905 0 5.677-.67 8.238-1.991a2.002 2.002 0 0 1 1.834 3.555A22.058 22.058 0 0 1 32 56m0-29.383c-4.071 0-7.383 3.312-7.383 7.383s3.312 7.383 7.383 7.383 7.383-3.312 7.383-7.383-3.312-7.383-7.383-7.383" id="Fill-4" fill="#638DA0"/><path d="M32 54c-12.131 0-22-9.869-22-22s9.869-22 22-22 22 9.869 22 22c0 4.521-1.361 8.866-3.938 12.563a1.998 1.998 0 0 1-2.551.637c-.331-.169-8.094-4.246-8.094-13.117v-8.789a2 2 0 0 1 4 0v8.789c0 4.333 2.641 7.143 4.395 8.529A17.907 17.907 0 0 0 50 32c0-9.925-8.075-18-18-18s-18 8.075-18 18 8.075 18 18 18c2.905 0 5.677-.67 8.238-1.991a2 2 0 1 1 1.834 3.554A22.062 22.062 0 0 1 32 54" id="Fill-5" fill="#FFFFFE"/><path d="M32 20.617c-6.287 0-11.383 5.096-11.383 11.383 0 6.287 5.096 11.383 11.383 11.383 6.287 0 11.383-5.096 11.383-11.383 0-6.287-5.096-11.383-11.383-11.383zm0 4c4.071 0 7.383 3.312 7.383 7.383S36.071 39.383 32 39.383 24.617 36.071 24.617 32s3.312-7.383 7.383-7.383z" id="Fill-6" fill="#FFFFFE"/></g></g><metadata><rdf:RDF xmlns:rdf="http://www.w3.org/1999/02/22-rdf-syntax-ns#" xmlns:rdfs="http://www.w3.org/2000/01/rdf-schema#" xmlns:dc="http://purl.org/dc/elements/1.1/"><rdf:Description about="https://iconscout.com/legal#licenses" dc:title="email" dc:description="email" dc:publisher="Iconscout" dc:date="2017-09-25" dc:format="image/svg+xml" dc:language="en"><dc:creator><rdf:Bag><rdf:li>Elegant Themes</rdf:li></rdf:Bag></dc:creator></rdf:Description></rdf:RDF></metadata></svg>